# xmcd
#
# Track frame offsets:
#	180
#	31159
#	50364
#	54415
#	81399
#	109040
#	145327
#	167918
#	221527
#	249247
#	300689
#
# Disc length: 4287 seconds
#
# Revision: 1
# Processed by: cddbd v1.5.2PL0 Copyright (c) Steve Scherf et al.
# Submitted via: audiograbber 1.83.01
#
DISCID=9110bd0b
DTITLE=Mick Pluto - Mick Pluto Box - Pluto 1
DYEAR=2012
DGENRE=Electronic
TTITLE0=Zirkel
TTITLE1=Freunde
TTITLE2=Unentschlossen
TTITLE3=Zahnbürste
TTITLE4=Grün und Blau
TTITLE5=Wunderwelt
TTITLE6=Merkwurstig
TTITLE7=Luftpumpe
TTITLE8=Auf und davon
TTITLE9=Planetengetriebe
TTITLE10=Pluto (für Gustav)
EXTD=
EXTT0=
EXTT1=
EXTT2=
EXTT3=
EXTT4=
EXTT5=
EXTT6=
EXTT7=
EXTT8=
EXTT9=
EXTT10=
PLAYORDER=
